<?xml version="1.0" standalone="no"?><!DOCTYPE svg PUBLIC "-//W3C//DTD SVG 1.1//EN" "http://www.w3.org/Graphics/SVG/1.1/DTD/svg11.dtd"><svg t="1613743088183" class="icon" viewBox="0 0 1024 1024" version="1.1" xmlns="http://www.w3.org/2000/svg" p-id="6598" xmlns:xlink="http://www.w3.org/1999/xlink" width="32" height="32"><defs><style type="text/css"></style></defs><path d="M512 116.906667c-162.190222 0-293.660444 137.102222-293.660444 306.289777v272.64a26.282667 26.282667 0 0 1-4.636445 14.791112l-62.407111 91.392a52.906667 52.906667 0 0 0-3.640889 53.020444c8.419556 16.981333 25.201778 27.648 43.52 27.648H832.853333c18.318222 0 35.100444-10.666667 43.52-27.648a52.906667 52.906667 0 0 0-3.640889-53.020444l-62.407111-91.392a26.282667 26.282667 0 0 1-4.636444-14.791112v-272.64C805.660444 254.037333 674.190222 116.906667 512 116.906667z m24.462222-25.543111h-48.924444c-20.280889 0-36.693333-17.152-36.693334-38.314667 0-21.134222 16.412444-38.286222 36.693334-38.286222h48.924444c20.280889 0 36.693333 17.152 36.693334 38.286222 0 21.162667-16.412444 38.286222-36.693334 38.314667z m61.184 918.954666H450.844444c-20.252444 0-36.693333-17.123556-36.693333-38.286222 0-21.134222 16.440889-38.286222 36.693333-38.286222h146.830223c20.280889 0 36.693333 17.152 36.693333 38.286222 0 21.162667-16.412444 38.286222-36.693333 38.286222z" p-id="6599"></path></svg>